<svg width="45" height="50" viewBox="0 0 45 50" fill="none" xmlns="http://www.w3.org/2000/svg">
<path fill-rule="evenodd" clip-rule="evenodd" d="M15.2283 3.64754C16.4235 1.8547 18.4357 0.777832 20.5904 0.777832H24.7221C26.8768 0.777832 28.889 1.85471 30.0842 3.64754L32.6155 7.4445H42.6562C43.7608 7.4445 44.6562 8.33993 44.6562 9.4445C44.6562 10.5491 43.7608 11.4445 42.6562 11.4445H2.65625C1.55168 11.4445 0.65625 10.5491 0.65625 9.4445C0.65625 8.33993 1.55168 7.4445 2.65625 7.4445H12.697L15.2283 3.64754ZM17.5044 7.4445H27.8081L26.756 5.86634C26.3026 5.1863 25.5394 4.77783 24.7221 4.77783H20.5904C19.7731 4.77783 19.0099 5.1863 18.5565 5.86634L17.5044 7.4445ZM7.10069 14.1112C8.20526 14.1112 9.10069 15.0066 9.10069 16.1112V38.3334C9.10069 42.138 12.185 45.2223 15.9896 45.2223H29.3229C33.1275 45.2223 36.2118 42.138 36.2118 38.3334V16.1112C36.2118 15.0066 37.1072 14.1112 38.2118 14.1112C39.3164 14.1112 40.2118 15.0066 40.2118 16.1112V38.3334C40.2118 44.3472 35.3367 49.2223 29.3229 49.2223H15.9896C9.97582 49.2223 5.10069 44.3472 5.10069 38.3334V16.1112C5.10069 15.0066 5.99613 14.1112 7.10069 14.1112ZM18.2118 20.7778C19.3164 20.7778 20.2118 21.6733 20.2118 22.7778L20.2118 36.1112C20.2118 37.2157 19.3164 38.1112 18.2118 38.1112C17.1072 38.1112 16.2118 37.2157 16.2118 36.1112L16.2118 22.7778C16.2118 21.6733 17.1072 20.7778 18.2118 20.7778ZM27.1007 20.7778C28.2053 20.7778 29.1007 21.6733 29.1007 22.7778V36.1112C29.1007 37.2157 28.2053 38.1112 27.1007 38.1112C25.9961 38.1112 25.1007 37.2157 25.1007 36.1112V22.7778C25.1007 21.6733 25.9961 20.7778 27.1007 20.7778Z" fill="#1B1F29"/>
</svg>
