<svg width="71" height="76" viewBox="0 0 71 76" fill="none" xmlns="http://www.w3.org/2000/svg">
<path d="M68.731 25.4453L41.0477 2.95026C37.656 0.196593 32.7353 0.196593 29.3437 2.95026L1.66401 25.4416C0.692339 26.2299 0.138672 27.3959 0.138672 28.6426V70.9669C0.138672 73.2403 1.99034 75.1103 4.26367 75.1103H22.8243C25.0977 75.1103 26.9493 73.2403 26.9493 70.9669V44.1783H43.4457V70.9669C43.4457 73.2403 45.2973 75.1103 47.5707 75.1103H66.1313C68.4047 75.1103 70.2563 73.2403 70.2563 70.9669V28.6426C70.2527 27.3959 69.699 26.2299 68.731 25.4453ZM66.1277 70.9889H47.567V44.1599C47.567 41.8866 45.7153 40.0569 43.442 40.0569H26.9457C24.6723 40.0569 22.8207 41.8866 22.8207 44.1599V70.9889H4.26367V28.6426L31.947 6.15126C33.828 4.61859 36.567 4.62226 38.448 6.15126L66.1313 28.6426L66.1277 70.9889Z" fill="#31AF91"/>
</svg>
