<svg width="95" height="96" viewBox="0 0 95 96" fill="none" xmlns="http://www.w3.org/2000/svg">
<path d="M57.4886 45.9297H51.8871L51.8977 30.8773C51.898 30.4432 51.7618 30.02 51.5085 29.6675C51.2551 29.315 50.8973 29.0511 50.4857 28.913C50.0741 28.775 49.6296 28.7698 49.2149 28.8982C48.8002 29.0266 48.4364 29.2822 48.1749 29.6287L35.2504 46.7527C35.0184 47.0601 34.8768 47.426 34.8413 47.8094C34.8059 48.1928 34.878 48.5784 35.0497 48.9231C35.2214 49.2677 35.4858 49.5576 35.8131 49.7603C36.1405 49.963 36.5179 50.0703 36.9029 50.0703H42.5044L42.4939 65.1226C42.4936 65.5567 42.6297 65.98 42.8831 66.3325C43.1365 66.685 43.4943 66.9489 43.9058 67.0869C44.3174 67.225 44.762 67.2302 45.1767 67.1017C45.5913 66.9733 45.9552 66.7178 46.2167 66.3713L59.1412 49.2472C59.3731 48.9399 59.5148 48.574 59.5502 48.1906C59.5857 47.8072 59.5135 47.4215 59.3418 47.0769C59.1702 46.7322 58.9058 46.4423 58.5784 46.2397C58.251 46.037 57.8736 45.9296 57.4886 45.9297ZM46.6389 58.9387L46.6465 48.0014V48C46.6465 47.4509 46.4284 46.9243 46.0402 46.536C45.6519 46.1478 45.1253 45.9297 44.5762 45.9297H41.0594L47.7527 37.0613L47.745 47.9986C47.7448 48.2705 47.7982 48.5397 47.9021 48.791C48.0059 49.0422 48.1583 49.2706 48.3504 49.4629C48.5426 49.6553 48.7707 49.808 49.0218 49.9122C49.2729 50.0164 49.5421 50.0701 49.814 50.0703H53.3322L46.6389 58.9387Z" fill="#31AF91"/>
<path d="M47.1956 19.86C31.6792 19.86 19.0557 32.4835 19.0557 48C19.0557 63.5164 31.6792 76.1399 47.1956 76.1399C62.7121 76.1399 75.3356 63.5164 75.3356 48C75.3356 32.4835 62.7121 19.86 47.1956 19.86ZM47.1956 71.9993C42.449 71.9993 37.809 70.5918 33.8623 67.9547C29.9156 65.3176 26.8396 61.5694 25.0231 57.1841C23.2067 52.7988 22.7314 47.9733 23.6574 43.3179C24.5835 38.6625 26.8692 34.3862 30.2255 31.0299C33.5819 27.6735 37.8582 25.3878 42.5136 24.4618C47.169 23.5357 51.9945 24.011 56.3798 25.8275C60.7651 27.6439 64.5133 30.72 67.1504 34.6666C69.7875 38.6133 71.195 43.2533 71.195 48C71.1878 54.3628 68.657 60.4629 64.1578 64.9621C59.6586 69.4613 53.5585 71.9921 47.1956 71.9993Z" fill="#31AF91"/>
<path d="M47.1958 16.9885C47.7449 16.9885 48.2715 16.7704 48.6597 16.3822C49.048 15.9939 49.2661 15.4673 49.2661 14.9182V2.87451C49.2661 2.32543 49.048 1.79884 48.6597 1.41058C48.2715 1.02232 47.7449 0.804199 47.1958 0.804199C46.6467 0.804199 46.1201 1.02232 45.7319 1.41058C45.3436 1.79884 45.1255 2.32543 45.1255 2.87451V14.9182C45.1255 15.4673 45.3436 15.9939 45.7319 16.3822C46.1201 16.7704 46.6467 16.9885 47.1958 16.9885Z" fill="#31AF91"/>
<path d="M47.1958 79.0114C46.6467 79.0114 46.1201 79.2295 45.7319 79.6177C45.3436 80.006 45.1255 80.5326 45.1255 81.0817V93.1254C45.1255 93.6745 45.3436 94.2011 45.7319 94.5893C46.1201 94.9776 46.6467 95.1957 47.1958 95.1957C47.7449 95.1957 48.2715 94.9776 48.6597 94.5893C49.048 94.2011 49.2661 93.6745 49.2661 93.1254V81.0817C49.2661 80.5326 49.048 80.006 48.6597 79.6177C48.2715 79.2295 47.7449 79.0114 47.1958 79.0114Z" fill="#31AF91"/>
<path d="M14.114 45.9296H2.07031C1.52123 45.9296 0.994639 46.1477 0.606381 46.536C0.218122 46.9243 0 47.4509 0 47.9999C0 48.549 0.218122 49.0756 0.606381 49.4639C0.994639 49.8521 1.52123 50.0703 2.07031 50.0703H14.114C14.6631 50.0703 15.1897 49.8521 15.578 49.4639C15.9662 49.0756 16.1843 48.549 16.1843 47.9999C16.1843 47.4509 15.9662 46.9243 15.578 46.536C15.1897 46.1477 14.6631 45.9296 14.114 45.9296Z" fill="#31AF91"/>
<path d="M92.3211 45.9296H80.2773C79.7283 45.9296 79.2017 46.1477 78.8134 46.536C78.4252 46.9243 78.207 47.4509 78.207 47.9999C78.207 48.549 78.4252 49.0756 78.8134 49.4639C79.2017 49.8521 79.7283 50.0703 80.2773 50.0703H92.3211C92.8701 50.0703 93.3967 49.8521 93.785 49.4639C94.1732 49.0756 94.3914 48.549 94.3914 47.9999C94.3914 47.4509 94.1732 46.9243 93.785 46.536C93.3967 46.1477 92.8701 45.9296 92.3211 45.9296Z" fill="#31AF91"/>
<path d="M71.7956 69.6716C71.4073 69.2833 70.8807 69.0652 70.3316 69.0652C69.7825 69.0652 69.2559 69.2833 68.8676 69.6716C68.4794 70.0599 68.2612 70.5865 68.2612 71.1356C68.2612 71.6847 68.4794 72.2113 68.8676 72.5995L73.2462 76.9781C73.4385 77.1703 73.6667 77.3228 73.9179 77.4269C74.1691 77.5309 74.4383 77.5845 74.7102 77.5845C74.9821 77.5845 75.2513 77.5309 75.5025 77.4269C75.7537 77.3228 75.9819 77.1703 76.1741 76.9781C76.3664 76.7858 76.5189 76.5576 76.6229 76.3064C76.727 76.0552 76.7805 75.786 76.7805 75.5141C76.7805 75.2422 76.727 74.973 76.6229 74.7218C76.5189 74.4707 76.3664 74.2424 76.1741 74.0502L71.7956 69.6716Z" fill="#31AF91"/>
<path d="M22.5963 26.3283C22.9845 26.7166 23.5111 26.9347 24.0602 26.9347C24.6093 26.9347 25.136 26.7166 25.5242 26.3283C25.9125 25.94 26.1306 25.4134 26.1306 24.8643C26.1306 24.3152 25.9125 23.7886 25.5242 23.4003L21.1456 19.0218C20.7574 18.6335 20.2308 18.4154 19.6817 18.4154C19.1326 18.4154 18.606 18.6335 18.2177 19.0218C17.8295 19.4101 17.6113 19.9367 17.6113 20.4858C17.6113 21.0348 17.8295 21.5614 18.2177 21.9497L22.5963 26.3283Z" fill="#31AF91"/>
<path d="M73.2462 19.0218L68.8676 23.4004C68.4794 23.7887 68.2612 24.3153 68.2612 24.8644C68.2612 25.4135 68.4794 25.9401 68.8676 26.3283C69.2559 26.7166 69.7825 26.9347 70.3316 26.9347C70.8807 26.9347 71.4073 26.7166 71.7956 26.3283L76.1741 21.9497C76.3664 21.7575 76.5189 21.5292 76.6229 21.278C76.727 21.0269 76.7805 20.7576 76.7805 20.4858C76.7805 20.2139 76.727 19.9447 76.6229 19.6935C76.5189 19.4423 76.3664 19.214 76.1741 19.0218C75.9819 18.8295 75.7537 18.677 75.5025 18.573C75.2513 18.469 74.9821 18.4154 74.7102 18.4154C74.4383 18.4154 74.1691 18.469 73.9179 18.573C73.6667 18.677 73.4385 18.8295 73.2462 19.0218Z" fill="#31AF91"/>
<path d="M22.5963 69.6716L18.2177 74.0502C17.8295 74.4385 17.6113 74.9651 17.6113 75.5142C17.6113 76.0633 17.8295 76.5899 18.2177 76.9781C18.606 77.3664 19.1326 77.5845 19.6817 77.5845C20.2308 77.5845 20.7574 77.3664 21.1456 76.9781L25.5242 72.5995C25.9125 72.2113 26.1306 71.6847 26.1306 71.1356C26.1306 70.5865 25.9125 70.0599 25.5242 69.6716C25.136 69.2833 24.6093 69.0652 24.0602 69.0652C23.5111 69.0652 22.9845 69.2834 22.5963 69.6716Z" fill="#31AF91"/>
</svg>
