<svg width="32" height="30" viewBox="0 0 32 30" fill="none" xmlns="http://www.w3.org/2000/svg">
<path d="M13.7528 21.9508C13.4215 21.9508 13.1028 21.8195 12.869 21.5845L7.30276 16.0183C6.81401 15.5295 6.81401 14.7395 7.30276 14.2508C7.79151 13.762 8.58151 13.762 9.07026 14.2508L13.7528 18.9333L27.2528 5.43326C24.5015 2.11451 20.3503 0.000762939 15.7028 0.000762939C7.41901 0.000762939 0.702759 6.71701 0.702759 15.0008C0.702759 23.2845 7.41901 30.0008 15.7028 30.0008C23.9865 30.0008 30.7028 23.2845 30.7028 15.0008C30.7028 12.2758 29.9653 9.72826 28.6953 7.52576L14.6365 21.5845C14.4028 21.8183 14.0853 21.9508 13.7528 21.9508Z" fill="#1B1F29"/>
<path d="M31.5863 2.86709C31.0976 2.37834 30.3076 2.37834 29.8188 2.86709L27.2526 5.43334C27.7926 6.08459 28.2688 6.78959 28.6951 7.52709L31.5863 4.63584C32.0751 4.14584 32.0751 3.35584 31.5863 2.86709Z" fill="#1B1F29"/>
</svg>
