<svg width="48" height="40" viewBox="0 0 48 40" fill="none" xmlns="http://www.w3.org/2000/svg">
<g id="&#208;&#184;&#208;&#186;&#208;&#190;&#208;&#189;&#208;&#186;&#208;&#176; &#208;&#183;&#208;&#176;&#208;&#178;&#208;&#190;&#208;&#180;&#208;&#176;">
<path id="Vector" d="M7.66853 28.0151H5.35327V30.3303H7.66853V28.0151Z" fill="#1B1F29"/>
<path id="Vector_2" d="M7.66853 31.9379H5.35327V34.2532H7.66853V31.9379Z" fill="#1B1F29"/>
<path id="Vector_3" d="M20.1383 28.0151H17.823V30.3303H20.1383V28.0151Z" fill="#1B1F29"/>
<path id="Vector_4" d="M20.1383 31.9379H17.823V34.2532H20.1383V31.9379Z" fill="#1B1F29"/>
<path id="Vector_5" d="M32.608 28.0151H30.2927V30.3303H32.608V28.0151Z" fill="#1B1F29"/>
<path id="Vector_6" d="M32.608 31.9379H30.2927V34.2532H32.608V31.9379Z" fill="#1B1F29"/>
<path id="Vector_7" d="M47.1237 38.2713H46.2633V23.9338C46.2633 23.8053 46.2344 23.6784 46.1784 23.5623C46.1225 23.4463 46.041 23.344 45.9399 23.263C45.8389 23.1819 45.7207 23.1242 45.5942 23.0939C45.4676 23.0637 45.3358 23.0617 45.2083 23.0881L42.5863 23.6303V20.8554C42.5863 20.6263 42.4941 20.4065 42.33 20.2444C42.166 20.0823 41.9434 19.991 41.7112 19.9907H39.9812V16.7126C39.9814 16.5991 39.9588 16.4867 39.9149 16.3818C39.871 16.2769 39.8066 16.1816 39.7253 16.1012C39.644 16.0209 39.5475 15.9572 39.4412 15.9137C39.335 15.8703 39.2211 15.8479 39.1061 15.8479H37.9754V0.865477C37.9755 0.751974 37.953 0.639555 37.9091 0.534649C37.8652 0.429744 37.8007 0.33441 37.7195 0.2541C37.6382 0.173789 37.5417 0.110076 37.4354 0.0666068C37.3292 0.0231372 37.2153 0.000762845 37.1003 0.000762939H33.5612C33.329 0.00105861 33.1064 0.0922924 32.9423 0.254426C32.7782 0.416559 32.6861 0.636334 32.6861 0.865477V15.8479H31.5554C31.3232 15.8482 31.1006 15.9394 30.9365 16.1016C30.7724 16.2637 30.6803 16.4835 30.6803 16.7126V19.9907H29.1256V16.7126C29.1256 16.4835 29.0334 16.2637 28.8693 16.1016C28.7052 15.9394 28.4826 15.8482 28.2504 15.8479H27.1198V0.865477C27.1198 0.636334 27.0276 0.416559 26.8635 0.254426C26.6994 0.0922924 26.4768 0.00105861 26.2446 0.000762939H22.7056C22.4734 0.00105861 22.2508 0.0922924 22.0867 0.254426C21.9226 0.416559 21.8304 0.636334 21.8304 0.865477V15.8479H20.6998C20.4676 15.8482 20.245 15.9394 20.0809 16.1016C19.9168 16.2637 19.8246 16.4835 19.8246 16.7126V19.9907H18.2699V16.7126C18.2699 16.4835 18.1778 16.2637 18.0137 16.1016C17.8496 15.9394 17.627 15.8482 17.3948 15.8479H16.2641V0.865477C16.2641 0.636334 16.1719 0.416559 16.0079 0.254426C15.8438 0.0922924 15.6212 0.00105861 15.389 0.000762939H11.8454C11.7304 0.000762845 11.6165 0.0231372 11.5103 0.0666068C11.404 0.110076 11.3075 0.173789 11.2262 0.2541C11.1449 0.33441 11.0805 0.429744 11.0366 0.534649C10.9927 0.639555 10.9701 0.751974 10.9703 0.865477V15.8479H9.8396C9.72458 15.8479 9.61068 15.8703 9.50443 15.9137C9.39818 15.9572 9.30166 16.0209 9.22038 16.1012C9.1391 16.1816 9.07466 16.2769 9.03074 16.3818C8.98683 16.4867 8.9643 16.5991 8.96445 16.7126V19.9907H7.23452C7.00231 19.991 6.77972 20.0823 6.61563 20.2444C6.45154 20.4065 6.35937 20.6263 6.35937 20.8554V25.3564L3.37777 25.9723C3.18089 26.0131 3.00425 26.1196 2.8776 26.2738C2.75095 26.4281 2.68201 26.6206 2.68241 26.8192V38.2713H1.81744C1.58503 38.2713 1.36215 38.3624 1.19782 38.5246C1.03348 38.6868 0.941162 38.9067 0.941162 39.1361C0.941162 39.3654 1.03348 39.5853 1.19782 39.7475C1.36215 39.9097 1.58503 40.0008 1.81744 40.0008H47.1237C47.3561 40.0008 47.579 39.9097 47.7433 39.7475C47.9077 39.5853 48 39.3654 48 39.1361C48 38.9067 47.9077 38.6868 47.7433 38.5246C47.579 38.3624 47.3561 38.2713 47.1237 38.2713ZM34.433 1.72908H36.2206V15.8479H34.433V1.72908ZM32.4226 17.5729H38.2309V19.9863H32.4226V17.5729ZM23.5762 1.72908H25.3649V15.8479H23.5762V1.72908ZM21.5659 17.5729H27.3753V19.9863H21.5659V17.5729ZM12.7206 1.72908H14.5104V15.8479H12.7206V1.72908ZM10.7102 17.5729H16.5185V19.9863H10.7102V17.5729ZM16.6237 38.2669H4.42817V27.5176L16.6237 24.9983V38.2669ZM30.5683 38.2669H18.374V27.5176L30.5683 24.9983V38.2669ZM31.2648 23.0836L18.3751 25.7469V23.9338C18.3752 23.8053 18.3462 23.6784 18.2903 23.5623C18.2343 23.4463 18.1528 23.344 18.0518 23.263C17.9507 23.1819 17.8326 23.1242 17.706 23.0939C17.5794 23.0637 17.4476 23.0617 17.3202 23.0881L8.10627 24.9916V21.7201H40.836V23.9918L32.3197 25.7514V23.9338C32.3196 23.8054 32.2905 23.6786 32.2345 23.5626C32.1785 23.4467 32.097 23.3445 31.996 23.2635C31.895 23.1825 31.7769 23.1247 31.6505 23.0944C31.524 23.064 31.3922 23.0619 31.2648 23.0881V23.0836ZM44.513 38.2713H32.3197V27.5176L44.513 24.9983V38.2713Z" fill="#1B1F29"/>
</g>
</svg>
