<svg width="27" height="24" viewBox="0 0 27 24" fill="none" xmlns="http://www.w3.org/2000/svg">
<path d="M1.32202 24.0013C1.19084 24.0046 1.0607 23.9772 0.942021 23.9213C0.759402 23.8462 0.603076 23.7188 0.492743 23.5551C0.382409 23.3914 0.323007 23.1987 0.322021 23.0013V4.78126C0.336305 4.13905 0.476984 3.50595 0.736019 2.91812C0.995055 2.33029 1.36737 1.79926 1.8317 1.35536C2.29602 0.911465 2.84326 0.563404 3.44214 0.331064C4.04102 0.098723 4.67982 -0.0133441 5.32202 0.00126481H21.322C21.9642 -0.0133441 22.603 0.098723 23.2019 0.331064C23.8008 0.563404 24.348 0.911465 24.8123 1.35536C25.2767 1.79926 25.649 2.33029 25.908 2.91812C26.1671 3.50595 26.3077 4.13905 26.322 4.78126V14.2213C26.3077 14.8635 26.1671 15.4966 25.908 16.0844C25.649 16.6722 25.2767 17.2033 24.8123 17.6472C24.348 18.0911 23.8008 18.4391 23.2019 18.6715C22.603 18.9038 21.9642 19.0159 21.322 19.0013H6.73202L2.03202 23.7113C1.93858 23.8039 1.82777 23.8773 1.70593 23.927C1.58409 23.9768 1.45363 24.002 1.32202 24.0013ZM5.32202 2.00126C4.55611 1.9742 3.81062 2.25142 3.24848 2.77234C2.68634 3.29325 2.35326 4.01551 2.32202 4.78126V20.5913L5.61202 17.2913C5.70546 17.1986 5.81628 17.1253 5.93812 17.0755C6.05995 17.0257 6.19041 17.0005 6.32202 17.0013H21.322C22.0879 17.0283 22.8334 16.7511 23.3956 16.2302C23.9577 15.7093 24.2908 14.987 24.322 14.2213V4.78126C24.2908 4.01551 23.9577 3.29325 23.3956 2.77234C22.8334 2.25142 22.0879 1.9742 21.322 2.00126H5.32202Z" fill="#1B1F29"/>
<path d="M1.32202 24.0013C1.19084 24.0046 1.0607 23.9772 0.942021 23.9213C0.759402 23.8462 0.603076 23.7188 0.492743 23.5551C0.382409 23.3914 0.323007 23.1987 0.322021 23.0013V4.78126C0.336305 4.13905 0.476984 3.50595 0.736019 2.91812C0.995055 2.33029 1.36737 1.79926 1.8317 1.35536C2.29602 0.911465 2.84326 0.563404 3.44214 0.331064C4.04102 0.098723 4.67982 -0.0133441 5.32202 0.00126481H21.322C21.9642 -0.0133441 22.603 0.098723 23.2019 0.331064C23.8008 0.563404 24.348 0.911465 24.8123 1.35536C25.2767 1.79926 25.649 2.33029 25.908 2.91812C26.1671 3.50595 26.3077 4.13905 26.322 4.78126V14.2213C26.3077 14.8635 26.1671 15.4966 25.908 16.0844C25.649 16.6722 25.2767 17.2033 24.8123 17.6472C24.348 18.0911 23.8008 18.4391 23.2019 18.6715C22.603 18.9038 21.9642 19.0159 21.322 19.0013H6.73202L2.03202 23.7113C1.93858 23.8039 1.82777 23.8773 1.70593 23.927C1.58409 23.9768 1.45363 24.002 1.32202 24.0013ZM5.32202 2.00126C4.55611 1.9742 3.81062 2.25142 3.24848 2.77234C2.68634 3.29325 2.35326 4.01551 2.32202 4.78126V20.5913L5.61202 17.2913C5.70546 17.1986 5.81628 17.1253 5.93812 17.0755C6.05995 17.0257 6.19041 17.0005 6.32202 17.0013H21.322C22.0879 17.0283 22.8334 16.7511 23.3956 16.2302C23.9577 15.7093 24.2908 14.987 24.322 14.2213V4.78126C24.2908 4.01551 23.9577 3.29325 23.3956 2.77234C22.8334 2.25142 22.0879 1.9742 21.322 2.00126H5.32202Z" stroke="#1B1F29"/>
<path d="M12.0102 12.4146C12.8018 12.4146 13.4436 11.8587 13.4436 11.1731C13.4436 10.4875 12.8018 9.93164 12.0102 9.93164C11.2186 9.93164 10.5769 10.4875 10.5769 11.1731C10.5769 11.8587 11.2186 12.4146 12.0102 12.4146Z" fill="#1B1F29"/>
<path d="M17.2651 12.4146C18.0567 12.4146 18.6985 11.8587 18.6985 11.1731C18.6985 10.4875 18.0567 9.93164 17.2651 9.93164C16.4735 9.93164 15.8318 10.4875 15.8318 11.1731C15.8318 11.8587 16.4735 12.4146 17.2651 12.4146Z" fill="#1B1F29"/>
<path d="M6.75535 12.4146C7.54696 12.4146 8.18869 11.8587 8.18869 11.1731C8.18869 10.4875 7.54696 9.93164 6.75535 9.93164C5.96375 9.93164 5.32202 10.4875 5.32202 11.1731C5.32202 11.8587 5.96375 12.4146 6.75535 12.4146Z" fill="#1B1F29"/>
</svg>
