<svg width="27" height="28" viewBox="0 0 27 28" fill="none" xmlns="http://www.w3.org/2000/svg">
<path d="M16.9696 12.4095C18.5762 11.4799 19.9042 10.1535 20.8203 8.56333C21.7364 6.9732 22.2083 5.17539 22.1887 3.35051C22.4919 3.33855 22.7788 3.21293 22.9898 2.9997C23.2009 2.78647 23.3198 2.50201 23.322 2.20533V1.65602C23.322 1.34984 23.1976 1.05619 22.9761 0.839681C22.7547 0.623174 22.4543 0.501541 22.1411 0.501541H4.50297C4.34789 0.501541 4.19432 0.531403 4.05104 0.589421C3.90776 0.647439 3.77758 0.732478 3.66791 0.839681C3.55825 0.946885 3.47126 1.07415 3.41192 1.21422C3.35257 1.35429 3.32202 1.50442 3.32202 1.65602V2.20533C3.3238 2.49497 3.43778 2.77318 3.64101 2.98395C3.84424 3.19471 4.12161 3.32236 4.41726 3.3412C4.49345 7.29809 6.56012 10.864 9.73154 12.456C10.011 12.609 10.2422 12.834 10.4 13.1065C10.5579 13.379 10.6363 13.6885 10.6268 14.0015V14.1784C10.6218 14.4868 10.5303 14.7878 10.3624 15.0488C10.1945 15.3099 9.9565 15.5208 9.6744 15.6588C8.06227 16.5751 6.72734 17.8928 5.80555 19.4775C4.88375 21.0623 4.40802 22.8576 4.42678 24.6805C4.13267 24.6968 3.85565 24.8209 3.6509 25.0279C3.44616 25.235 3.32873 25.5098 3.32202 25.7977V26.3471C3.32202 26.4987 3.35257 26.6488 3.41192 26.7889C3.47126 26.9289 3.55825 27.0562 3.66791 27.1634C3.77758 27.2706 3.90776 27.3556 4.05104 27.4137C4.19432 27.4717 4.34789 27.5015 4.50297 27.5015H22.1411C22.4543 27.5015 22.7547 27.3799 22.9761 27.1634C23.1976 26.9469 23.322 26.6532 23.322 26.3471V25.7977C23.3198 25.5011 23.2009 25.2166 22.9898 25.0034C22.7788 24.7902 22.4919 24.6645 22.1887 24.6526C22.2043 22.8383 21.7311 21.0521 20.8166 19.4733C19.9022 17.8945 18.5787 16.5789 16.9792 15.6588C16.6985 15.5216 16.4614 15.312 16.2936 15.0528C16.1258 14.7936 16.0335 14.4945 16.0268 14.1877V13.8805C16.0326 13.5748 16.1235 13.2763 16.2895 13.0172C16.4556 12.758 16.6907 12.548 16.9696 12.4095ZM4.2744 2.20533V1.65602C4.2744 1.59676 4.29848 1.53993 4.34135 1.49802C4.38421 1.45612 4.44235 1.43258 4.50297 1.43258H22.1411C22.2017 1.43258 22.2598 1.45612 22.3027 1.49802C22.3456 1.53993 22.3696 1.59676 22.3696 1.65602V2.20533C22.3696 2.2646 22.3456 2.32143 22.3027 2.36334C22.2598 2.40524 22.2017 2.42878 22.1411 2.42878H4.50297C4.44235 2.42878 4.38421 2.40524 4.34135 2.36334C4.29848 2.32143 4.2744 2.2646 4.2744 2.20533ZM22.3696 25.7977V26.3471C22.3696 26.4063 22.3456 26.4632 22.3027 26.5051C22.2598 26.547 22.2017 26.5705 22.1411 26.5705H4.50297C4.44235 26.5705 4.38421 26.547 4.34135 26.5051C4.29848 26.4632 4.2744 26.4063 4.2744 26.3471V25.7977C4.2744 25.7385 4.29848 25.6817 4.34135 25.6397C4.38421 25.5978 4.44235 25.5743 4.50297 25.5743H22.1411C22.2017 25.5743 22.2598 25.5978 22.3027 25.6397C22.3456 25.6817 22.3696 25.7385 22.3696 25.7977ZM16.5315 16.4874C17.9889 17.3197 19.1962 18.5126 20.0322 19.9459C20.8681 21.3793 21.3031 23.0026 21.2935 24.6526H5.36012C5.34779 23.0009 5.7816 21.3753 6.61772 19.94C7.45384 18.5046 8.66264 17.3105 10.122 16.4781C10.5597 16.2635 10.9289 15.9356 11.1891 15.5301C11.4494 15.1246 11.5909 14.6571 11.5982 14.1784V14.0015C11.6068 13.5192 11.4789 13.0439 11.2284 12.6282C10.978 12.2125 10.6149 11.8726 10.1792 11.646C8.7083 10.8029 7.49256 9.5934 6.65599 8.14096C5.81942 6.68852 5.39197 5.04511 5.41726 3.37844H21.2458C21.2595 5.03793 20.8268 6.6718 19.991 8.1163C19.1553 9.5608 17.9458 10.7652 16.4839 11.6088C16.0512 11.8252 15.6869 12.1527 15.4302 12.5562C15.1734 12.9597 15.034 13.424 15.0268 13.8991V14.1877C15.0385 14.6677 15.1851 15.1353 15.4505 15.5393C15.7159 15.9433 16.0899 16.2681 16.5315 16.4781V16.4874Z" fill="#1B1F29"/>
<path d="M16.9696 12.4095C18.5762 11.4799 19.9042 10.1535 20.8203 8.56333C21.7364 6.9732 22.2083 5.17539 22.1887 3.35051C22.4919 3.33855 22.7788 3.21293 22.9898 2.9997C23.2009 2.78647 23.3198 2.50201 23.322 2.20533V1.65602C23.322 1.34984 23.1976 1.05619 22.9761 0.839681C22.7547 0.623174 22.4543 0.501541 22.1411 0.501541H4.50297C4.34789 0.501541 4.19432 0.531403 4.05104 0.589421C3.90776 0.647439 3.77758 0.732478 3.66791 0.839681C3.55825 0.946885 3.47126 1.07415 3.41192 1.21422C3.35257 1.35429 3.32202 1.50442 3.32202 1.65602V2.20533C3.3238 2.49497 3.43778 2.77318 3.64101 2.98395C3.84424 3.19471 4.12161 3.32236 4.41726 3.3412C4.49345 7.29809 6.56012 10.864 9.73154 12.456C10.011 12.609 10.2422 12.834 10.4 13.1065C10.5579 13.379 10.6363 13.6885 10.6268 14.0015V14.1784C10.6218 14.4868 10.5303 14.7878 10.3624 15.0488C10.1945 15.3099 9.9565 15.5208 9.6744 15.6588C8.06227 16.5751 6.72734 17.8928 5.80555 19.4775C4.88375 21.0623 4.40802 22.8576 4.42678 24.6805C4.13267 24.6968 3.85565 24.8209 3.6509 25.0279C3.44616 25.235 3.32873 25.5098 3.32202 25.7977V26.3471C3.32202 26.4987 3.35257 26.6488 3.41192 26.7889C3.47126 26.9289 3.55825 27.0562 3.66791 27.1634C3.77758 27.2706 3.90776 27.3556 4.05104 27.4137C4.19432 27.4717 4.34789 27.5015 4.50297 27.5015H22.1411C22.4543 27.5015 22.7547 27.3799 22.9761 27.1634C23.1976 26.9469 23.322 26.6532 23.322 26.3471V25.7977C23.3198 25.5011 23.2009 25.2166 22.9898 25.0034C22.7788 24.7902 22.4919 24.6645 22.1887 24.6526C22.2043 22.8383 21.7311 21.0521 20.8166 19.4733C19.9022 17.8945 18.5787 16.5789 16.9792 15.6588C16.6985 15.5216 16.4614 15.312 16.2936 15.0528C16.1258 14.7936 16.0335 14.4945 16.0268 14.1877V13.8805C16.0326 13.5748 16.1235 13.2763 16.2895 13.0172C16.4556 12.758 16.6907 12.548 16.9696 12.4095ZM4.2744 2.20533V1.65602C4.2744 1.59676 4.29848 1.53993 4.34135 1.49802C4.38421 1.45612 4.44235 1.43258 4.50297 1.43258H22.1411C22.2017 1.43258 22.2598 1.45612 22.3027 1.49802C22.3456 1.53993 22.3696 1.59676 22.3696 1.65602V2.20533C22.3696 2.2646 22.3456 2.32143 22.3027 2.36334C22.2598 2.40524 22.2017 2.42878 22.1411 2.42878H4.50297C4.44235 2.42878 4.38421 2.40524 4.34135 2.36334C4.29848 2.32143 4.2744 2.2646 4.2744 2.20533ZM22.3696 25.7977V26.3471C22.3696 26.4063 22.3456 26.4632 22.3027 26.5051C22.2598 26.547 22.2017 26.5705 22.1411 26.5705H4.50297C4.44235 26.5705 4.38421 26.547 4.34135 26.5051C4.29848 26.4632 4.2744 26.4063 4.2744 26.3471V25.7977C4.2744 25.7385 4.29848 25.6817 4.34135 25.6397C4.38421 25.5978 4.44235 25.5743 4.50297 25.5743H22.1411C22.2017 25.5743 22.2598 25.5978 22.3027 25.6397C22.3456 25.6817 22.3696 25.7385 22.3696 25.7977ZM16.5315 16.4874C17.9889 17.3197 19.1962 18.5126 20.0322 19.9459C20.8681 21.3793 21.3031 23.0026 21.2935 24.6526H5.36012C5.34779 23.0009 5.7816 21.3753 6.61772 19.94C7.45384 18.5046 8.66264 17.3105 10.122 16.4781C10.5597 16.2635 10.9289 15.9356 11.1891 15.5301C11.4494 15.1246 11.5909 14.6571 11.5982 14.1784V14.0015C11.6068 13.5192 11.4789 13.0439 11.2284 12.6282C10.978 12.2125 10.6149 11.8726 10.1792 11.646C8.7083 10.8029 7.49256 9.5934 6.65599 8.14096C5.81942 6.68852 5.39197 5.04511 5.41726 3.37844H21.2458C21.2595 5.03793 20.8268 6.6718 19.991 8.1163C19.1553 9.5608 17.9458 10.7652 16.4839 11.6088C16.0512 11.8252 15.6869 12.1527 15.4302 12.5562C15.1734 12.9597 15.034 13.424 15.0268 13.8991V14.1877C15.0385 14.6677 15.1851 15.1353 15.4505 15.5393C15.7159 15.9433 16.0899 16.2681 16.5315 16.4781V16.4874Z" stroke="#1B1F29"/>
</svg>
