<svg width="81" height="80" viewBox="0 0 81 80" fill="none" xmlns="http://www.w3.org/2000/svg">
<path d="M40.1666 0C18.1091 0 0.166626 17.9449 0.166626 40.0013C0.166626 62.0577 18.1091 80 40.1666 80C62.223 80 80.1666 62.0577 80.1666 40.0013C80.1666 17.9449 62.2233 0 40.1666 0ZM40.1666 73.6905C21.5891 73.6905 6.47592 58.5776 6.47592 40.0011C6.47592 21.4224 21.5891 6.3093 40.1666 6.3093C58.7442 6.3093 73.8573 21.4224 73.8573 40.0011C73.8573 58.5776 58.7442 73.6905 40.1666 73.6905Z" fill="#1B1F29"/>
<path d="M40.1666 0C18.1091 0 0.166626 17.9449 0.166626 40.0013C0.166626 62.0577 18.1091 80 40.1666 80C62.223 80 80.1666 62.0577 80.1666 40.0013C80.1666 17.9449 62.2233 0 40.1666 0ZM40.1666 73.6905C21.5891 73.6905 6.47592 58.5776 6.47592 40.0011C6.47592 21.4224 21.5891 6.3093 40.1666 6.3093C58.7442 6.3093 73.8573 21.4224 73.8573 40.0011C73.8573 58.5776 58.7442 73.6905 40.1666 73.6905Z" stroke="black"/>
<path d="M35.0569 32.4312C35.0569 30.0607 37.9545 29.6559 40.468 29.6559C42.8369 29.6559 46.0738 30.9844 48.7804 32.6633L49.3108 26.1297C47.9572 25.2038 44.8172 24.105 41.6277 23.8754L42.4007 17.2258H37.2302L38.0042 23.8754C31.3363 24.6259 29.1614 29.251 29.1614 33.125C29.1614 38.6008 33.9417 40.3547 38.1442 41.8966C41.4403 43.1059 44.381 44.1849 44.381 46.8268C44.381 49.0836 42.5946 49.8911 39.4529 49.8911C35.2016 49.8911 32.0112 48.1007 30.3696 46.2491L29.5473 53.5925C31.0949 54.6913 34.2339 55.6739 38.0042 55.906L37.2302 62.3237H42.4007L41.6277 55.847C49.4554 55.0371 50.8565 50.0642 50.8565 46.7701C50.8566 39.9131 45.3552 38.1083 40.8449 36.6287C37.7118 35.6008 35.0569 34.7299 35.0569 32.4312Z" fill="#1B1F29"/>
<path d="M35.0569 32.4312C35.0569 30.0607 37.9545 29.6559 40.468 29.6559C42.8369 29.6559 46.0738 30.9844 48.7804 32.6633L49.3108 26.1297C47.9572 25.2038 44.8172 24.105 41.6277 23.8754L42.4007 17.2258H37.2302L38.0042 23.8754C31.3363 24.6259 29.1614 29.251 29.1614 33.125C29.1614 38.6008 33.9417 40.3547 38.1442 41.8966C41.4403 43.1059 44.381 44.1849 44.381 46.8268C44.381 49.0836 42.5946 49.8911 39.4529 49.8911C35.2016 49.8911 32.0112 48.1007 30.3696 46.2491L29.5473 53.5925C31.0949 54.6913 34.2339 55.6739 38.0042 55.906L37.2302 62.3237H42.4007L41.6277 55.847C49.4554 55.0371 50.8565 50.0642 50.8565 46.7701C50.8566 39.9131 45.3552 38.1083 40.8449 36.6287C37.7118 35.6008 35.0569 34.7299 35.0569 32.4312Z" stroke="black"/>
</svg>
