<svg width="80" height="80" viewBox="0 0 80 80" fill="none" xmlns="http://www.w3.org/2000/svg">
<path d="M51.5243 36.7735L19.3988 68.895C19.6839 70.9188 19.3254 72.9811 18.374 74.7901C17.4227 76.599 15.9266 78.0632 14.0974 78.9754C12.2682 79.8876 10.1985 80.2018 8.18097 79.8734C6.16345 79.545 4.30023 78.5907 2.85484 77.1455C1.40946 75.7003 0.455063 73.8373 0.126641 71.82C-0.201782 69.8028 0.112392 67.7333 1.02473 65.9044C1.93706 64.0754 3.40138 62.5795 5.21058 61.6283C7.01978 60.6771 9.08229 60.3186 11.1064 60.6037L43.232 28.4821C52.979 18.7363 53.2264 17.5985 52.8355 16.5646C51.9518 14.2787 51.7785 11.7794 52.3385 9.39355C52.8984 7.00767 54.1654 4.84628 55.9737 3.19207C57.7821 1.53785 60.0477 0.467813 62.4741 0.121901C64.9006 -0.224012 67.375 0.170305 69.5736 1.25328C69.7666 1.34727 69.9695 1.44622 70.1575 1.55505L62.4588 9.26264C61.875 9.85659 61.5479 10.6561 61.5479 11.4888C61.5479 12.3216 61.875 13.1211 62.4588 13.715L66.2785 17.5342C66.6803 17.932 67.1812 18.2151 67.7292 18.3543C68.2773 18.4935 68.8526 18.4836 69.3955 18.3257C69.9083 18.181 70.3752 17.9067 70.7512 17.5292L78.4499 9.85134C79.0203 10.8654 79.4403 11.9569 79.6967 13.0917C79.7264 13.2302 79.7561 13.3687 79.7758 13.5122C80.1913 15.6459 80.0272 17.8519 79.3005 19.9006C78.5738 21.9493 77.3112 23.7657 75.6441 25.1609C73.977 26.5561 71.9663 27.4789 69.8214 27.8333C67.6765 28.1877 65.4758 27.9608 63.4484 27.1761C62.4291 26.7902 61.2813 27.0277 51.5243 36.7735Z" fill="#1B1F29"/>
</svg>
