<svg width="81" height="80" viewBox="0 0 81 80" fill="none" xmlns="http://www.w3.org/2000/svg">
<path d="M37.1968 47.2727C37.1968 43.2545 33.9423 40 29.9241 40C25.9059 40 22.6514 43.2545 22.6514 47.2727C22.6514 48.2764 23.4659 49.0909 24.4695 49.0909C25.4732 49.0909 26.2877 48.2764 26.2877 47.2727C26.2877 45.2654 27.9168 43.6364 29.9241 43.6364C31.9314 43.6364 33.5604 45.2654 33.5604 47.2727C33.5568 49.1818 32.8768 51.0254 31.6332 52.4727L23.0877 62.4363C22.4259 63.1891 22.4986 64.3381 23.255 65.0036C23.5895 65.2981 24.0223 65.4581 24.4695 65.4545H35.3786C36.3823 65.4545 37.1968 64.64 37.1968 63.6363C37.1968 62.6327 36.3823 61.8182 35.3786 61.8182H28.4332L34.3968 54.8363C36.2004 52.7309 37.1932 50.0473 37.1968 47.2727Z" fill="#303C42"/>
<path d="M53.5605 43.6364C54.5641 43.6364 55.3787 42.8218 55.3787 41.8182C55.3787 40.8145 54.5641 40 53.5605 40H44.4696C43.5823 40.0073 42.8296 40.6509 42.6878 41.5273L40.8696 52.4363C40.6878 53.4218 41.3387 54.3709 42.3242 54.5563C42.9205 54.6691 43.5351 54.4727 43.9605 54.0363C44.8732 53.1563 46.1132 52.6982 47.3787 52.7636C49.7787 52.7818 51.7241 54.7272 51.7423 57.1272V58.1818C51.7423 60.1891 50.1132 61.8182 48.106 61.8182C46.0987 61.8182 44.4696 60.1891 44.4696 58.1818C44.4696 57.1782 43.6551 56.3636 42.6514 56.3636C41.6478 56.3636 40.8333 57.1782 40.8333 58.1818C40.8333 62.2 44.0878 65.4545 48.106 65.4545C52.1241 65.4545 55.3787 62.2 55.3787 58.1818V57.1272C55.2114 52.5309 51.3532 48.9382 46.7569 49.1054C46.1823 49.1273 45.6114 49.2073 45.0514 49.3454L45.9969 43.6364H53.5605Z" fill="#303C42"/>
<path d="M73.5604 7.27272H64.4695C63.4659 7.27272 62.6514 8.08726 62.6514 9.0909V18.1818C62.6586 20.1891 61.0368 21.8254 59.0295 21.8327C57.0223 21.84 55.3859 20.2182 55.3786 18.2109C55.3714 16.6582 56.3495 15.2763 57.815 14.7636C58.535 14.5018 59.015 13.8218 59.015 13.0545V1.81818C59.015 0.814544 58.2005 0 57.1968 0C56.1932 0 55.3786 0.814544 55.3786 1.81818V7.27272H28.1059C27.1023 7.27272 26.2878 8.08726 26.2878 9.0909V18.1818C26.295 20.1891 24.6732 21.8254 22.666 21.8327C20.6587 21.84 19.0223 20.2182 19.015 18.2109C19.0078 16.6582 19.986 15.2763 21.4514 14.7636C22.1714 14.5018 22.6514 13.8218 22.6514 13.0545V1.81818C22.6514 0.814544 21.8369 0 20.8332 0C19.8296 0 19.015 0.814544 19.015 1.81818V7.27272H8.10597C4.08779 7.27272 0.833252 10.5273 0.833252 14.5454V72.7272C0.833252 76.7454 4.08779 79.9999 8.10597 79.9999H60.0695C61.0368 80.0072 61.9641 79.6254 62.6514 78.9454L79.7786 61.8181C80.4586 61.1308 80.8404 60.2036 80.8332 59.2363V14.5454C80.8332 10.5273 77.5786 7.27272 73.5604 7.27272ZM8.10597 72.7272V29.0909H73.5604V57.7454L73.1241 58.1817H66.2877C62.2695 58.1817 59.015 61.4363 59.015 65.4545V72.2908L58.5786 72.7272H8.10597Z" fill="#1B1F29"/>
</svg>
