<svg width="44" height="44" viewBox="0 0 44 44" fill="none" xmlns="http://www.w3.org/2000/svg">
<circle opacity="0.9" cx="22" cy="22" r="21.5" fill="white" stroke="#1B1F29"/>
<path fill-rule="evenodd" clip-rule="evenodd" d="M12.9173 14.6777H26.8714C28.1516 14.6777 29.0601 15.6949 29.1017 16.812H10.687C10.7287 15.6949 11.6372 14.6777 12.9173 14.6777ZM10.7896 17.5508H28.9991C28.9372 17.742 28.8468 17.9301 28.7253 18.1107L22.8708 25.7879C22.3828 26.5133 22.1224 27.3657 22.1224 28.2376V31.8855C22.1224 32.1783 22.0051 32.4591 21.7961 32.6662L19.5681 34.8743C18.8663 35.5699 17.6663 35.0773 17.6663 34.0936V28.2376C17.6663 27.3657 17.4059 26.5133 16.918 25.7879L11.0635 18.1107C10.942 17.9301 10.8515 17.742 10.7896 17.5508Z" fill="#1B1F29"/>
<ellipse cx="29.135" cy="15.3688" rx="5.29667" ry="5.3117" fill="#FCB222"/>
<path d="M30.1063 15.5084C30.175 15.664 30.2093 15.8434 30.2093 16.0464C30.2093 16.2291 30.1784 16.3983 30.1166 16.554C30.0342 16.7705 29.8952 16.9397 29.6996 17.0615C29.5073 17.1834 29.2791 17.2443 29.0148 17.2443C28.7539 17.2443 28.524 17.18 28.3249 17.0514C28.1292 16.9228 27.9885 16.7485 27.9027 16.5286C27.8546 16.3966 27.8272 16.2545 27.8203 16.1022C27.8203 16.0616 27.8409 16.0413 27.8821 16.0413H28.4896C28.5308 16.0413 28.5514 16.0616 28.5514 16.1022C28.5651 16.2139 28.584 16.2968 28.6081 16.3509C28.6389 16.4389 28.6887 16.5083 28.7574 16.559C28.8294 16.6064 28.9135 16.6301 29.0096 16.6301C29.2019 16.6301 29.334 16.5472 29.4061 16.3814C29.4541 16.2799 29.4782 16.1614 29.4782 16.0261C29.4782 15.867 29.4524 15.7368 29.4009 15.6352C29.322 15.4762 29.1899 15.3967 29.0045 15.3967C28.9667 15.3967 28.9273 15.4085 28.8861 15.4322C28.8449 15.4525 28.7951 15.483 28.7368 15.5236C28.723 15.5337 28.7093 15.5388 28.6956 15.5388C28.675 15.5388 28.6595 15.5287 28.6492 15.5084L28.3455 15.0871C28.3386 15.0769 28.3352 15.0651 28.3352 15.0515C28.3352 15.0312 28.342 15.0143 28.3558 15.0008L29.1744 14.2953C29.1813 14.2885 29.183 14.2817 29.1796 14.275C29.1796 14.2682 29.1744 14.2648 29.1641 14.2648H27.9542C27.937 14.2648 27.9216 14.2597 27.9078 14.2496C27.8975 14.236 27.8924 14.2208 27.8924 14.2039V13.7115C27.8924 13.6946 27.8975 13.6811 27.9078 13.6709C27.9216 13.6574 27.937 13.6506 27.9542 13.6506H30.1012C30.1183 13.6506 30.1321 13.6574 30.1423 13.6709C30.1561 13.6811 30.1629 13.6946 30.1629 13.7115V14.2699C30.1629 14.2969 30.1509 14.3223 30.1269 14.346L29.4524 14.9551C29.4456 14.9619 29.4421 14.9686 29.4421 14.9754C29.4456 14.9822 29.4541 14.9856 29.4679 14.9856C29.7665 15.0431 29.9793 15.2173 30.1063 15.5084Z" fill="#1B1F29"/>
</svg>
