<svg width="80" height="80" viewBox="0 0 80 80" fill="none" xmlns="http://www.w3.org/2000/svg">
<path d="M40 0C17.7778 0 0 17.7778 0 40C0 48 2.66667 56 7.11111 62.6667L0.888889 73.3333C1.98682e-07 74.6667 1.98682e-07 76.4445 0.888889 77.7778C1.77778 79.1111 2.66667 80 4.44444 80H40C62.2222 80 80 62.2222 80 40C80 17.7778 62.2222 0 40 0ZM40 71.1111H12.4444L16.4444 64.4445C17.3333 62.6667 17.3333 60.8889 16 59.5556C11.5556 54.2222 8.88889 47.1111 8.88889 40C8.88889 22.6667 22.6667 8.88889 40 8.88889C57.3333 8.88889 71.1111 22.6667 71.1111 40C71.1111 57.3333 57.3333 71.1111 40 71.1111Z" fill="#1B1F29"/>
<path d="M40.4444 19.1111H40C35.5555 19.1111 31.5555 21.3333 29.3333 24.8889C27.5555 27.1111 28 29.7777 30.2222 31.1111C32.4444 32.4444 35.1111 32 36.4444 29.7777C37.3333 28.4444 38.6666 28 40 28H40.4444C42.6666 28 44.4444 29.7777 44.4444 32C44.4444 33.7777 43.1111 35.5555 41.7777 36L38.6666 36.8889C36.8889 37.3333 35.5555 39.1111 35.5555 40.8889V44.4444C35.5555 47.1111 37.3333 48.8889 40 48.8889C42.2222 48.8889 44.4444 47.1111 44.4444 44.8889C49.7777 43.1111 53.3333 38.2222 53.3333 32.4444C53.3333 25.3333 47.5555 19.1111 40.4444 19.1111Z" fill="#1B1F29"/>
<path d="M40.0001 62.2224C42.4547 62.2224 44.4446 60.2325 44.4446 57.7779C44.4446 55.3233 42.4547 53.3335 40.0001 53.3335C37.5455 53.3335 35.5557 55.3233 35.5557 57.7779C35.5557 60.2325 37.5455 62.2224 40.0001 62.2224Z" fill="#1B1F29"/>
</svg>
