<svg width="15" height="16" viewBox="0 0 15 16" fill="none" xmlns="http://www.w3.org/2000/svg">
<path fill-rule="evenodd" clip-rule="evenodd" d="M4.99859 1.258C5.39528 0.662965 6.06311 0.305555 6.77825 0.305555H8.06941C8.78455 0.305555 9.45238 0.662966 9.84907 1.258L10.603 2.38889H13.6738C14.088 2.38889 14.4238 2.72468 14.4238 3.13889C14.4238 3.5531 14.088 3.88889 13.6738 3.88889H1.17383C0.759615 3.88889 0.423828 3.5531 0.423828 3.13889C0.423828 2.72468 0.759615 2.38889 1.17383 2.38889H4.24466L4.99859 1.258ZM6.04744 2.38889H8.80022L8.60099 2.09005C8.4825 1.91231 8.28302 1.80556 8.06941 1.80556H6.77825C6.56464 1.80556 6.36515 1.91231 6.24666 2.09005L6.04744 2.38889ZM2.56272 4.47222C2.97693 4.47222 3.31272 4.80801 3.31272 5.22222V12.1667C3.31272 13.2866 4.22058 14.1944 5.34049 14.1944H9.50716C10.6271 14.1944 11.5349 13.2866 11.5349 12.1667V5.22222C11.5349 4.80801 11.8707 4.47222 12.2849 4.47222C12.6992 4.47222 13.0349 4.80801 13.0349 5.22222V12.1667C13.0349 14.115 11.4555 15.6944 9.50716 15.6944H5.34049C3.39216 15.6944 1.81272 14.115 1.81272 12.1667V5.22222C1.81272 4.80801 2.1485 4.47222 2.56272 4.47222ZM6.03494 6.55556C6.44915 6.55556 6.78494 6.89134 6.78494 7.30556L6.78494 11.4722C6.78494 11.8864 6.44915 12.2222 6.03494 12.2222C5.62073 12.2222 5.28494 11.8864 5.28494 11.4722L5.28494 7.30556C5.28494 6.89134 5.62073 6.55556 6.03494 6.55556ZM8.81272 6.55556C9.22693 6.55556 9.56272 6.89134 9.56272 7.30556V11.4722C9.56272 11.8864 9.22693 12.2222 8.81272 12.2222C8.3985 12.2222 8.06272 11.8864 8.06272 11.4722V7.30556C8.06272 6.89134 8.3985 6.55556 8.81272 6.55556Z" fill="#1B1F29"/>
</svg>
