<svg width="16" height="17" viewBox="0 0 16 17" fill="none" xmlns="http://www.w3.org/2000/svg">
<path d="M15.6157 7.55604L11.6287 10.445L13.1861 15.1172C13.2368 15.2743 13.2361 15.4435 13.1843 15.6003C13.1326 15.757 13.0323 15.8933 12.898 15.9893C12.7654 16.085 12.606 16.1365 12.4425 16.1365C12.2789 16.1365 12.1196 16.085 11.9869 15.9893L7.96885 13.1081L3.98193 16.0049C3.8493 16.1006 3.68992 16.152 3.52639 16.152C3.36286 16.152 3.20348 16.1006 3.07085 16.0049C2.93657 15.9088 2.8363 15.7726 2.78451 15.6158C2.73273 15.4591 2.7321 15.2899 2.78273 15.1328L4.34013 10.4606L0.322053 7.55604C0.188568 7.4594 0.0891833 7.3229 0.038201 7.16619C-0.0127812 7.00948 -0.0127325 6.84064 0.0383403 6.68396C0.089413 6.52728 0.188876 6.39084 0.322417 6.29428C0.455958 6.19771 0.61669 6.14601 0.781484 6.1466H5.70285L7.26024 1.47442C7.31145 1.31863 7.41053 1.18298 7.54337 1.08681C7.6762 0.990643 7.83601 0.938869 8 0.938869C8.16399 0.938869 8.3238 0.990643 8.45663 1.08681C8.58947 1.18298 8.68855 1.31863 8.73976 1.47442L10.2972 6.1466H15.2185C15.3833 6.14601 15.544 6.19771 15.6776 6.29428C15.8111 6.39084 15.9106 6.52728 15.9617 6.68396C16.0127 6.84064 16.0128 7.00948 15.9618 7.16619C15.9108 7.3229 15.8114 7.4594 15.6779 7.55604H15.6157Z" fill="#FCB222"/>
</svg>
