<svg  viewBox="0 0 20 22" fill="none" xmlns="http://www.w3.org/2000/svg">
<path fill-rule="evenodd" clip-rule="evenodd" d="M6.53537 1.36857C7.10207 0.51852 8.05611 0.00793457 9.07775 0.00793457H10.9223C11.9439 0.00793457 12.8979 0.518521 13.4646 1.36857L14.5417 2.98412H18.9286C19.5203 2.98412 20 3.46382 20 4.05555C20 4.64729 19.5203 5.12698 18.9286 5.12698H1.07143C0.479695 5.12698 0 4.64729 0 4.05555C0 3.46382 0.479695 2.98412 1.07143 2.98412H5.45833L6.53537 1.36857ZM8.03373 2.98412H11.9663L11.6817 2.55722C11.5124 2.3033 11.2274 2.15079 10.9223 2.15079H9.07775C8.77258 2.15079 8.48761 2.3033 8.31833 2.55722L8.03373 2.98412ZM3.05556 5.96032C3.64729 5.96032 4.12698 6.44001 4.12698 7.03174V16.9524C4.12698 18.5522 5.42394 19.8492 7.02381 19.8492H12.9762C14.5761 19.8492 15.873 18.5522 15.873 16.9524V7.03174C15.873 6.44001 16.3527 5.96032 16.9444 5.96032C17.5362 5.96032 18.0159 6.44001 18.0159 7.03174V16.9524C18.0159 19.7357 15.7595 21.9921 12.9762 21.9921H7.02381C4.24047 21.9921 1.98413 19.7357 1.98413 16.9524V7.03174C1.98413 6.44001 2.46382 5.96032 3.05556 5.96032ZM8.01587 8.93651C8.60761 8.93651 9.0873 9.4162 9.0873 10.0079L9.0873 15.9603C9.0873 16.552 8.60761 17.0317 8.01587 17.0317C7.42414 17.0317 6.94444 16.552 6.94444 15.9603L6.94444 10.0079C6.94444 9.4162 7.42414 8.93651 8.01587 8.93651ZM11.9841 8.93651C12.5759 8.93651 13.0556 9.4162 13.0556 10.0079V15.9603C13.0556 16.552 12.5759 17.0317 11.9841 17.0317C11.3924 17.0317 10.9127 16.552 10.9127 15.9603V10.0079C10.9127 9.4162 11.3924 8.93651 11.9841 8.93651Z" fill="#1B1F29"/>
</svg>
