<svg  viewBox="0 0 41 34" fill="none" xmlns="http://www.w3.org/2000/svg">
<path d="M13.7285 31.7564C13.7285 32.1903 13.5966 32.6144 13.3495 32.9752C13.1024 33.336 12.7512 33.6171 12.3403 33.7832C11.9293 33.9492 11.4772 33.9927 11.0409 33.908C10.6047 33.8234 10.204 33.6144 9.88947 33.3076C9.57496 33.0008 9.36078 32.6099 9.27401 32.1844C9.18723 31.7588 9.23177 31.3177 9.40198 30.9169C9.57219 30.516 9.86043 30.1734 10.2303 29.9323C10.6001 29.6913 11.0349 29.5626 11.4797 29.5626C12.0761 29.5626 12.6481 29.7937 13.0698 30.2051C13.4916 30.6166 13.7285 31.1746 13.7285 31.7564ZM26.0973 29.5626C25.6525 29.5626 25.2177 29.6913 24.8479 29.9323C24.478 30.1734 24.1898 30.516 24.0196 30.9169C23.8494 31.3177 23.8048 31.7588 23.8916 32.1844C23.9784 32.6099 24.1926 33.0008 24.5071 33.3076C24.8216 33.6144 25.2223 33.8234 25.6585 33.908C26.0948 33.9927 26.5469 33.9492 26.9579 33.7832C27.3688 33.6171 27.72 33.336 27.9671 32.9752C28.2142 32.6144 28.3461 32.1903 28.3461 31.7564C28.3461 31.1746 28.1092 30.6166 27.6874 30.2051C27.2657 29.7937 26.6937 29.5626 26.0973 29.5626ZM32.2957 11.3541C32.1902 11.2186 32.0542 11.1086 31.8983 11.0325C31.7423 10.9565 31.5705 10.9164 31.3961 10.9153H7.0241L5.88562 7.02132C5.7491 6.56384 5.46452 6.16173 5.07439 5.87506C4.68425 5.58838 4.20951 5.43254 3.72109 5.43082H1.35978C1.06156 5.43082 0.775561 5.54638 0.56469 5.75209C0.353818 5.9578 0.235352 6.2368 0.235352 6.52772C0.235352 6.81863 0.353818 7.09763 0.56469 7.30334C0.775561 7.50905 1.06156 7.62461 1.35978 7.62461H3.72109L5.09851 12.3001V12.3276L8.80913 24.983C9.01289 25.6698 9.4395 26.2736 10.0249 26.7038C10.6103 27.134 11.323 27.3673 12.0559 27.3688H25.521C26.2539 27.3673 26.9666 27.134 27.552 26.7038C28.1374 26.2736 28.564 25.6698 28.7678 24.983L32.4784 12.3139C32.526 12.151 32.5342 11.9796 32.5025 11.813C32.4708 11.6465 32.4 11.4894 32.2957 11.3541Z" fill="#1B1F29"/>
</svg>
