<svg width="41" height="34" viewBox="0 0 41 34" fill="none" xmlns="http://www.w3.org/2000/svg">
<path d="M13.7285 31.7564C13.7285 32.1903 13.5966 32.6144 13.3495 32.9752C13.1024 33.336 12.7512 33.6171 12.3403 33.7832C11.9293 33.9492 11.4772 33.9927 11.0409 33.908C10.6047 33.8234 10.204 33.6144 9.88947 33.3076C9.57496 33.0008 9.36078 32.6099 9.27401 32.1844C9.18723 31.7588 9.23177 31.3177 9.40198 30.9169C9.57219 30.516 9.86043 30.1734 10.2303 29.9323C10.6001 29.6913 11.0349 29.5626 11.4797 29.5626C12.0761 29.5626 12.6481 29.7937 13.0698 30.2051C13.4916 30.6166 13.7285 31.1746 13.7285 31.7564ZM26.0973 29.5626C25.6525 29.5626 25.2177 29.6913 24.8479 29.9323C24.478 30.1734 24.1898 30.516 24.0196 30.9169C23.8494 31.3177 23.8048 31.7588 23.8916 32.1844C23.9784 32.6099 24.1926 33.0008 24.5071 33.3076C24.8216 33.6144 25.2223 33.8234 25.6585 33.908C26.0948 33.9927 26.5469 33.9492 26.9579 33.7832C27.3688 33.6171 27.72 33.336 27.9671 32.9752C28.2142 32.6144 28.3461 32.1903 28.3461 31.7564C28.3461 31.1746 28.1092 30.6166 27.6874 30.2051C27.2657 29.7937 26.6937 29.5626 26.0973 29.5626ZM32.2957 11.3541C32.1902 11.2186 32.0542 11.1086 31.8983 11.0325C31.7423 10.9565 31.5705 10.9164 31.3961 10.9153H7.0241L5.88562 7.02132C5.7491 6.56384 5.46452 6.16173 5.07439 5.87506C4.68425 5.58838 4.20951 5.43254 3.72109 5.43082H1.35978C1.06156 5.43082 0.775561 5.54638 0.56469 5.75209C0.353818 5.9578 0.235352 6.2368 0.235352 6.52772C0.235352 6.81863 0.353818 7.09763 0.56469 7.30334C0.775561 7.50905 1.06156 7.62461 1.35978 7.62461H3.72109L5.09851 12.3001V12.3276L8.80913 24.983C9.01289 25.6698 9.4395 26.2736 10.0249 26.7038C10.6103 27.134 11.323 27.3673 12.0559 27.3688H25.521C26.2539 27.3673 26.9666 27.134 27.552 26.7038C28.1374 26.2736 28.564 25.6698 28.7678 24.983L32.4784 12.3139C32.526 12.151 32.5342 11.9796 32.5025 11.813C32.4708 11.6465 32.4 11.4894 32.2957 11.3541Z" fill="#1B1F29"/>
<ellipse cx="32.0739" cy="8.23475" rx="8.16177" ry="8.18495" fill="#FCB222"/>
<path d="M33.5704 8.44992C33.6762 8.68978 33.7291 8.96613 33.7291 9.27899C33.7291 9.56055 33.6815 9.82126 33.5863 10.0611C33.4593 10.3948 33.2451 10.6555 32.9436 10.8433C32.6474 11.031 32.2957 11.1248 31.8885 11.1248C31.4865 11.1248 31.1321 11.0258 30.8254 10.8276C30.5239 10.6295 30.307 10.3609 30.1748 10.022C30.1007 9.81866 30.0584 9.59966 30.0479 9.36502C30.0479 9.30245 30.0796 9.27116 30.1431 9.27116H31.0792C31.1427 9.27116 31.1744 9.30245 31.1744 9.36502C31.1956 9.53709 31.2247 9.66484 31.2617 9.74827C31.3093 9.88384 31.386 9.99073 31.4918 10.0689C31.6029 10.1419 31.7324 10.1784 31.8805 10.1784C32.1767 10.1784 32.3803 10.0507 32.4914 9.79519C32.5655 9.63877 32.6025 9.45627 32.6025 9.2477C32.6025 9.00263 32.5628 8.80188 32.4835 8.64546C32.3618 8.40039 32.1582 8.27785 31.8726 8.27785C31.8144 8.27785 31.7536 8.2961 31.6901 8.3326C31.6267 8.36389 31.55 8.41082 31.46 8.47339C31.4389 8.48903 31.4177 8.49685 31.3966 8.49685C31.3648 8.49685 31.341 8.48121 31.3252 8.44992L30.8571 7.80075C30.8465 7.78511 30.8412 7.76686 30.8412 7.746C30.8412 7.71472 30.8518 7.68865 30.873 7.66779L32.1344 6.58062C32.145 6.57019 32.1476 6.55976 32.1423 6.54934C32.1423 6.53891 32.1344 6.53369 32.1185 6.53369H30.2541C30.2277 6.53369 30.2039 6.52587 30.1827 6.51023C30.1669 6.48937 30.1589 6.46591 30.1589 6.43984V5.68117C30.1589 5.6551 30.1669 5.63424 30.1827 5.6186C30.2039 5.59774 30.2277 5.58731 30.2541 5.58731H33.5625C33.5889 5.58731 33.6101 5.59774 33.6259 5.6186C33.6471 5.63424 33.6577 5.6551 33.6577 5.68117V6.54151C33.6577 6.58323 33.6392 6.62234 33.6021 6.65883L32.5628 7.5974C32.5522 7.60782 32.547 7.61825 32.547 7.62868C32.5522 7.63911 32.5655 7.64432 32.5866 7.64432C33.0468 7.73297 33.3747 8.0015 33.5704 8.44992Z" fill="#1B1F29"/>
</svg>
