<svg width="27" height="24" viewBox="0 0 27 24" fill="none" xmlns="http://www.w3.org/2000/svg">
<path d="M1.96777 24.0005C1.8366 24.0039 1.70645 23.9765 1.58777 23.9205C1.40515 23.8455 1.24883 23.7181 1.13849 23.5544C1.02816 23.3907 0.968759 23.198 0.967773 23.0005V4.78053C0.982057 4.13832 1.12274 3.50521 1.38177 2.91738C1.64081 2.32956 2.01312 1.79852 2.47745 1.35463C2.94177 0.910732 3.48901 0.562672 4.08789 0.330331C4.68678 0.0979906 5.32557 -0.0140765 5.96777 0.000532389H21.9678C22.61 -0.0140765 23.2488 0.0979906 23.8477 0.330331C24.4465 0.562672 24.9938 0.910732 25.4581 1.35463C25.9224 1.79852 26.2947 2.32956 26.5538 2.91738C26.8128 3.50521 26.9535 4.13832 26.9678 4.78053V14.2205C26.9535 14.8627 26.8128 15.4959 26.5538 16.0837C26.2947 16.6715 25.9224 17.2025 25.4581 17.6464C24.9938 18.0903 24.4465 18.4384 23.8477 18.6707C23.2488 18.9031 22.61 19.0151 21.9678 19.0005H7.37777L2.67777 23.7105C2.58433 23.8032 2.47352 23.8765 2.35168 23.9263C2.22984 23.9761 2.09938 24.0013 1.96777 24.0005ZM5.96777 2.00053C5.20186 1.97347 4.45637 2.25069 3.89423 2.7716C3.33209 3.29252 2.99901 4.01478 2.96777 4.78053V20.5905L6.25777 17.2905C6.35121 17.1979 6.46203 17.1245 6.58387 17.0748C6.7057 17.025 6.83617 16.9998 6.96777 17.0005H21.9678C22.7337 17.0276 23.4792 16.7504 24.0413 16.2295C24.6035 15.7085 24.9365 14.9863 24.9678 14.2205V4.78053C24.9365 4.01478 24.6035 3.29252 24.0413 2.7716C23.4792 2.25069 22.7337 1.97347 21.9678 2.00053H5.96777Z" fill="#1B1F29"/>
<path d="M1.96777 24.0005C1.8366 24.0039 1.70645 23.9765 1.58777 23.9205C1.40515 23.8455 1.24883 23.7181 1.13849 23.5544C1.02816 23.3907 0.968759 23.198 0.967773 23.0005V4.78053C0.982057 4.13832 1.12274 3.50521 1.38177 2.91738C1.64081 2.32956 2.01312 1.79852 2.47745 1.35463C2.94177 0.910732 3.48901 0.562672 4.08789 0.330331C4.68678 0.0979906 5.32557 -0.0140765 5.96777 0.000532389H21.9678C22.61 -0.0140765 23.2488 0.0979906 23.8477 0.330331C24.4465 0.562672 24.9938 0.910732 25.4581 1.35463C25.9224 1.79852 26.2947 2.32956 26.5538 2.91738C26.8128 3.50521 26.9535 4.13832 26.9678 4.78053V14.2205C26.9535 14.8627 26.8128 15.4959 26.5538 16.0837C26.2947 16.6715 25.9224 17.2025 25.4581 17.6464C24.9938 18.0903 24.4465 18.4384 23.8477 18.6707C23.2488 18.9031 22.61 19.0151 21.9678 19.0005H7.37777L2.67777 23.7105C2.58433 23.8032 2.47352 23.8765 2.35168 23.9263C2.22984 23.9761 2.09938 24.0013 1.96777 24.0005ZM5.96777 2.00053C5.20186 1.97347 4.45637 2.25069 3.89423 2.7716C3.33209 3.29252 2.99901 4.01478 2.96777 4.78053V20.5905L6.25777 17.2905C6.35121 17.1979 6.46203 17.1245 6.58387 17.0748C6.7057 17.025 6.83617 16.9998 6.96777 17.0005H21.9678C22.7337 17.0276 23.4792 16.7504 24.0413 16.2295C24.6035 15.7085 24.9365 14.9863 24.9678 14.2205V4.78053C24.9365 4.01478 24.6035 3.29252 24.0413 2.7716C23.4792 2.25069 22.7337 1.97347 21.9678 2.00053H5.96777Z" stroke="#1B1F29"/>
<path d="M12.656 12.4138C13.4476 12.4138 14.0893 11.858 14.0893 11.1724C14.0893 10.4867 13.4476 9.93091 12.656 9.93091C11.8644 9.93091 11.2227 10.4867 11.2227 11.1724C11.2227 11.858 11.8644 12.4138 12.656 12.4138Z" fill="#1B1F29"/>
<path d="M17.9109 12.4138C18.7025 12.4138 19.3442 11.858 19.3442 11.1724C19.3442 10.4867 18.7025 9.93091 17.9109 9.93091C17.1193 9.93091 16.4775 10.4867 16.4775 11.1724C16.4775 11.858 17.1193 12.4138 17.9109 12.4138Z" fill="#1B1F29"/>
<path d="M7.40111 12.4138C8.19272 12.4138 8.83444 11.858 8.83444 11.1724C8.83444 10.4867 8.19272 9.93091 7.40111 9.93091C6.6095 9.93091 5.96777 10.4867 5.96777 11.1724C5.96777 11.858 6.6095 12.4138 7.40111 12.4138Z" fill="#1B1F29"/>
</svg>
