<svg width="36" height="30" viewBox="0 0 36 30" fill="none" xmlns="http://www.w3.org/2000/svg">
<path d="M5.15051 21.0107H3.41406V22.7472H5.15051V21.0107Z" fill="#1B1F29"/>
<path d="M5.15051 23.9529H3.41406V25.6893H5.15051V23.9529Z" fill="#1B1F29"/>
<path d="M14.503 21.0107H12.7666V22.7472H14.503V21.0107Z" fill="#1B1F29"/>
<path d="M14.503 23.9529H12.7666V25.6893H14.503V23.9529Z" fill="#1B1F29"/>
<path d="M23.8556 21.0107H22.1191V22.7472H23.8556V21.0107Z" fill="#1B1F29"/>
<path d="M23.8556 23.9529H22.1191V25.6893H23.8556V23.9529Z" fill="#1B1F29"/>
<path d="M34.7424 28.7029H34.097V17.9498C34.0971 17.8534 34.0754 17.7582 34.0334 17.6712C33.9915 17.5841 33.9304 17.5074 33.8546 17.4467C33.7788 17.3859 33.6902 17.3426 33.5952 17.3199C33.5003 17.2972 33.4014 17.2957 33.3059 17.3155L31.3393 17.7222V15.641C31.3393 15.4691 31.2702 15.3043 31.1471 15.1827C31.0241 15.0611 30.8571 14.9927 30.683 14.9925H29.3855V12.5339C29.3856 12.4488 29.3687 12.3644 29.3358 12.2858C29.3029 12.2071 29.2545 12.1356 29.1936 12.0754C29.1326 12.0151 29.0602 11.9673 28.9805 11.9347C28.9008 11.9021 28.8154 11.8854 28.7291 11.8854H27.8811V0.648536C27.8813 0.563408 27.8644 0.479094 27.8314 0.400415C27.7985 0.321736 27.7502 0.250236 27.6892 0.190003C27.6282 0.12977 27.5558 0.0819852 27.4762 0.0493829C27.3965 0.0167807 27.311 -7.10488e-08 27.2248 0H24.5705C24.3964 0.000221752 24.2294 0.0686471 24.1063 0.190247C23.9833 0.311847 23.9142 0.476678 23.9142 0.648536V11.8854H23.0661C22.892 11.8856 22.725 11.954 22.602 12.0756C22.4789 12.1972 22.4098 12.362 22.4098 12.5339V14.9925H21.2438V12.5339C21.2438 12.362 21.1747 12.1972 21.0516 12.0756C20.9285 11.954 20.7616 11.8856 20.5874 11.8854H19.7394V0.648536C19.7394 0.476678 19.6703 0.311847 19.5472 0.190247C19.4242 0.0686471 19.2572 0.000221752 19.0831 0H16.4288C16.2546 0.000221752 16.0877 0.0686471 15.9646 0.190247C15.8416 0.311847 15.7724 0.476678 15.7724 0.648536V11.8854H14.9244C14.7503 11.8856 14.5833 11.954 14.4603 12.0756C14.3372 12.1972 14.2681 12.362 14.2681 12.5339V14.9925H13.102V12.5339C13.102 12.362 13.0329 12.1972 12.9099 12.0756C12.7868 11.954 12.6198 11.8856 12.4457 11.8854H11.5977V0.648536C11.5977 0.476678 11.5286 0.311847 11.4055 0.190247C11.2824 0.0686471 11.1155 0.000221752 10.9413 0H8.28366C8.1974 -7.10488e-08 8.11198 0.0167807 8.03229 0.0493829C7.9526 0.0819852 7.88021 0.12977 7.81925 0.190003C7.75829 0.250236 7.70996 0.321736 7.67702 0.400415C7.64409 0.479094 7.62719 0.563408 7.6273 0.648536V11.8854H6.7793C6.69303 11.8854 6.60761 11.9021 6.52792 11.9347C6.44823 11.9673 6.37584 12.0151 6.31488 12.0754C6.25392 12.1356 6.20559 12.2071 6.17266 12.2858C6.13972 12.3644 6.12283 12.4488 6.12294 12.5339V14.9925H4.82548C4.65133 14.9927 4.48438 15.0611 4.36132 15.1827C4.23825 15.3043 4.16913 15.4691 4.16913 15.641V19.0167L1.93293 19.4787C1.78526 19.5092 1.65278 19.5891 1.5578 19.7048C1.46281 19.8205 1.41111 19.9649 1.4114 20.1138V28.7029H0.762675C0.588373 28.7029 0.42121 28.7713 0.29796 28.8929C0.17471 29.0145 0.105469 29.1795 0.105469 29.3515C0.105469 29.5235 0.17471 29.6884 0.29796 29.81C0.42121 29.9317 0.588373 30 0.762675 30H34.7424C34.9167 30 35.0838 29.9317 35.2071 29.81C35.3303 29.6884 35.3996 29.5235 35.3996 29.3515C35.3996 29.1795 35.3303 29.0145 35.2071 28.8929C35.0838 28.7713 34.9167 28.7029 34.7424 28.7029ZM25.2243 1.29623H26.565V11.8854H25.2243V1.29623ZM23.7166 13.1791H28.0728V14.9891H23.7166V13.1791ZM17.0818 1.29623H18.4233V11.8854H17.0818V1.29623ZM15.574 13.1791H19.9311V14.9891H15.574V13.1791ZM8.94002 1.29623H10.2824V11.8854H8.94002V1.29623ZM7.43226 13.1791H11.7885V14.9891H7.43226V13.1791ZM11.8673 28.6996H2.72073V20.6377L11.8673 18.7481V28.6996ZM22.3258 28.6996H13.1801V20.6377L22.3258 18.7481V28.6996ZM22.8482 17.3121L13.1809 19.3096V17.9498C13.181 17.8534 13.1592 17.7582 13.1173 17.6712C13.0753 17.5841 13.0142 17.5074 12.9384 17.4467C12.8626 17.3859 12.774 17.3426 12.6791 17.3199C12.5842 17.2972 12.4853 17.2957 12.3897 17.3155L5.4793 18.7431V16.2895H30.0266V17.9933L23.6394 19.313V17.9498C23.6393 17.8535 23.6175 17.7584 23.5755 17.6714C23.5335 17.5844 23.4724 17.5078 23.3966 17.447C23.3208 17.3863 23.2323 17.343 23.1374 17.3202C23.0426 17.2975 22.9438 17.2958 22.8482 17.3155V17.3121ZM32.7843 28.7029H23.6394V20.6377L32.7843 18.7481V28.7029Z" fill="#1B1F29"/>
</svg>
