<svg width="21" height="28" viewBox="0 0 21 28" fill="none" xmlns="http://www.w3.org/2000/svg">
<path d="M14.1847 12.4079C15.7913 11.4784 17.1193 10.1519 18.0354 8.56179C18.9515 6.97166 19.4234 5.17385 19.4038 3.34897C19.707 3.33701 19.9939 3.21139 20.2049 2.99816C20.416 2.78493 20.5349 2.50047 20.5371 2.20379V1.65448C20.5371 1.34829 20.4127 1.05465 20.1912 0.83814C19.9697 0.621633 19.6694 0.5 19.3562 0.5H1.71806C1.56298 0.5 1.40941 0.529862 1.26613 0.58788C1.12285 0.645898 0.992664 0.730937 0.883003 0.83814C0.773341 0.945344 0.686352 1.07261 0.627004 1.21268C0.567656 1.35275 0.537109 1.50287 0.537109 1.65448V2.20379C0.538891 2.49343 0.652873 2.77164 0.856098 2.98241C1.05932 3.19317 1.33669 3.32082 1.63235 3.33966C1.70854 7.29655 3.7752 10.8624 6.94663 12.4545C7.22609 12.6075 7.4573 12.8325 7.61514 13.105C7.77297 13.3774 7.85139 13.687 7.84187 14V14.1769C7.83686 14.4852 7.74541 14.7863 7.57748 15.0473C7.40955 15.3083 7.17159 15.5193 6.88949 15.6572C5.27736 16.5736 3.94243 17.8913 3.02064 19.476C2.09884 21.0608 1.62311 22.856 1.64187 24.679C1.34776 24.6953 1.07073 24.8193 0.86599 25.0264C0.661248 25.2334 0.543821 25.5083 0.537109 25.7962V26.3455C0.537109 26.4971 0.567656 26.6473 0.627004 26.7873C0.686352 26.9274 0.773341 27.0547 0.883003 27.1619C0.992664 27.2691 1.12285 27.3541 1.26613 27.4121C1.40941 27.4701 1.56298 27.5 1.71806 27.5H19.3562C19.6694 27.5 19.9697 27.3784 20.1912 27.1619C20.4127 26.9454 20.5371 26.6517 20.5371 26.3455V25.7962C20.5349 25.4995 20.416 25.2151 20.2049 25.0018C19.9939 24.7886 19.707 24.663 19.4038 24.651C19.4194 22.8368 18.9462 21.0505 18.0317 19.4718C17.1173 17.893 15.7937 16.5774 14.1943 15.6572C13.9136 15.52 13.6765 15.3105 13.5087 15.0513C13.3409 14.792 13.2486 14.4929 13.2419 14.1862V13.879C13.2477 13.5732 13.3385 13.2748 13.5046 13.0156C13.6707 12.7565 13.9058 12.5464 14.1847 12.4079ZM1.48949 2.20379V1.65448C1.48949 1.59522 1.51357 1.53839 1.55644 1.49648C1.5993 1.45458 1.65744 1.43103 1.71806 1.43103H19.3562C19.4168 1.43103 19.4749 1.45458 19.5178 1.49648C19.5606 1.53839 19.5847 1.59522 19.5847 1.65448V2.20379C19.5847 2.26306 19.5606 2.31989 19.5178 2.36179C19.4749 2.4037 19.4168 2.42724 19.3562 2.42724H1.71806C1.65744 2.42724 1.5993 2.4037 1.55644 2.36179C1.51357 2.31989 1.48949 2.26306 1.48949 2.20379ZM19.5847 25.7962V26.3455C19.5847 26.4048 19.5606 26.4616 19.5178 26.5035C19.4749 26.5454 19.4168 26.569 19.3562 26.569H1.71806C1.65744 26.569 1.5993 26.5454 1.55644 26.5035C1.51357 26.4616 1.48949 26.4048 1.48949 26.3455V25.7962C1.48949 25.7369 1.51357 25.6801 1.55644 25.6382C1.5993 25.5963 1.65744 25.5728 1.71806 25.5728H19.3562C19.4168 25.5728 19.4749 25.5963 19.5178 25.6382C19.5606 25.6801 19.5847 25.7369 19.5847 25.7962ZM13.7466 16.4859C15.2039 17.3182 16.4113 18.511 17.2473 19.9444C18.0832 21.3778 18.5182 23.0011 18.5085 24.651H2.5752C2.56288 22.9993 2.99669 21.3737 3.83281 19.9384C4.66893 18.5031 5.87773 17.3089 7.33711 16.4766C7.77484 16.262 8.14394 15.9341 8.40423 15.5286C8.66452 15.1231 8.80601 14.6556 8.8133 14.1769V14C8.82192 13.5176 8.69395 13.0423 8.44351 12.6266C8.19308 12.2109 7.82995 11.871 7.39425 11.6445C5.92339 10.8014 4.70764 9.59186 3.87108 8.13942C3.03451 6.68697 2.60706 5.04357 2.63235 3.3769H18.4609C18.4746 5.03639 18.0419 6.67026 17.2061 8.11476C16.3704 9.55926 15.1609 10.7637 13.699 11.6072C13.2663 11.8236 12.902 12.1512 12.6453 12.5547C12.3885 12.9582 12.2491 13.4225 12.2419 13.8976V14.1862C12.2536 14.6662 12.4001 15.1338 12.6656 15.5378C12.931 15.9417 13.305 16.2665 13.7466 16.4766V16.4859Z" fill="#1B1F29"/>
</svg>
