<svg  viewBox="0 0 41 24" fill="none" xmlns="http://www.w3.org/2000/svg">
<path fill-rule="evenodd" clip-rule="evenodd" d="M0.124023 1.06824C0.124023 0.478268 1.29198 0 2.73272 0H37.5153C38.9561 0 40.124 0.478268 40.124 1.06824C40.124 1.65822 38.9561 2.13648 37.5153 2.13648H2.73272C1.29198 2.13648 0.124023 1.65822 0.124023 1.06824ZM0.124023 11.5682C0.124023 10.9783 1.29198 10.5 2.73272 10.5H37.5153C38.9561 10.5 40.124 10.9783 40.124 11.5682C40.124 12.1582 38.9561 12.6365 37.5153 12.6365H2.73272C1.29198 12.6365 0.124023 12.1582 0.124023 11.5682ZM2.73272 21.8635C1.29198 21.8635 0.124023 22.3418 0.124023 22.9317C0.124023 23.5217 1.29198 24 2.73272 24H37.5153C38.9561 24 40.124 23.5217 40.124 22.9317C40.124 22.3418 38.9561 21.8635 37.5153 21.8635H2.73272Z" fill="#1B1F29"/>
</svg>
