<svg  viewBox="0 0 21 18" fill="none" xmlns="http://www.w3.org/2000/svg">
<path d="M4.23535 3.05176e-05C2.02635 3.05176e-05 0.235352 2.0149 0.235352 4.50002V13.5C0.235352 15.9851 2.02635 18 4.23535 18H16.2354C18.4444 18 20.2354 15.9851 20.2354 13.5V4.50002C20.2354 2.0149 18.4444 3.05176e-05 16.2354 3.05176e-05H4.23535ZM4.23535 2.25003H16.2354C17.2434 2.25003 18.0764 3.08253 18.2144 4.17378C17.2564 5.1784 15.8324 6.41139 14.8914 7.17189C12.7264 8.92126 10.8214 10.125 10.2354 10.125C9.64935 10.125 7.74435 8.92238 5.57935 7.17189C4.63835 6.41139 3.71336 5.58902 3.01636 4.92189C2.71936 4.63727 2.49935 4.40777 2.32935 4.21877C2.46735 3.12752 3.22735 2.25003 4.23535 2.25003ZM2.24536 7.14827C4.78336 9.45789 8.50235 12.3615 10.2354 12.375C11.3644 12.384 13.2954 11.1713 15.2654 9.64013C16.2844 8.84701 17.4184 7.90538 18.2364 7.13251L18.2354 13.5C18.2354 14.7431 17.3404 15.75 16.2354 15.75H4.23535C3.13035 15.75 2.23535 14.7431 2.23535 13.5L2.24536 7.14827Z" fill="#ffffff"/>
</svg>
