<svg viewBox="0 0 31 30" fill="none" xmlns="http://www.w3.org/2000/svg">
<path d="M30.124 26.6667V23.9234C30.124 22.5604 29.2942 21.3347 28.0287 20.8285L24.6384 19.4724C23.0288 18.8286 21.1943 19.526 20.419 21.0766L20.124 21.6667C20.124 21.6667 15.9574 20.8333 12.624 17.5C9.29069 14.1667 8.45736 10 8.45736 10L9.04738 9.70499C10.598 8.92968 11.2954 7.09523 10.6516 5.48559L9.2955 2.09537C8.78929 0.829838 7.5636 0 6.20058 0H3.45736C1.61641 0 0.124023 1.49238 0.124023 3.33333C0.124023 18.0609 12.0631 30 26.7907 30C28.6316 30 30.124 28.5076 30.124 26.6667Z" fill="#ffffff"/>
</svg>
