<svg viewBox="0 0 17 16" fill="none" xmlns="http://www.w3.org/2000/svg">
<path d="M16.4633 7.0106L12.4764 9.89957L14.0338 14.5717C14.0844 14.7289 14.0838 14.8981 14.032 15.0548C13.9802 15.2116 13.8799 15.3478 13.7457 15.4439C13.613 15.5395 13.4537 15.591 13.2901 15.591C13.1266 15.591 12.9672 15.5395 12.8346 15.4439L8.81651 12.5627L4.82958 15.4595C4.69695 15.5551 4.53758 15.6066 4.37405 15.6066C4.21052 15.6066 4.05114 15.5551 3.91851 15.4595C3.78423 15.3634 3.68396 15.2272 3.63217 15.0704C3.58038 14.9136 3.57976 14.7445 3.63039 14.5873L5.18778 9.91514L1.16971 7.0106C1.03622 6.91396 0.93684 6.77747 0.885857 6.62076C0.834875 6.46405 0.834924 6.2952 0.885997 6.13852C0.937069 5.98184 1.03653 5.8454 1.17007 5.74884C1.30361 5.65228 1.46435 5.60057 1.62914 5.60116H6.5505L8.10789 0.928981C8.1591 0.773189 8.25819 0.637539 8.39102 0.541373C8.52386 0.445207 8.68366 0.393433 8.84766 0.393433C9.01165 0.393433 9.17145 0.445207 9.30429 0.541373C9.43713 0.637539 9.53621 0.773189 9.58742 0.928981L11.1448 5.60116H16.0662C16.231 5.60057 16.3917 5.65228 16.5252 5.74884C16.6588 5.8454 16.7582 5.98184 16.8093 6.13852C16.8604 6.2952 16.8604 6.46405 16.8095 6.62076C16.7585 6.77747 16.6591 6.91396 16.5256 7.0106H16.4633Z" fill="#1B1F29"/>
</svg>
