<svg viewBox="0 0 32 30" fill="none" xmlns="http://www.w3.org/2000/svg">
<path d="M13.1555 21.95C12.8242 21.95 12.5055 21.8188 12.2717 21.5837L6.70547 16.0175C6.21672 15.5288 6.21672 14.7387 6.70547 14.25C7.19422 13.7612 7.98422 13.7612 8.47297 14.25L13.1555 18.9325L26.6555 5.4325C23.9042 2.11375 19.753 0 15.1055 0C6.82172 0 0.105469 6.71625 0.105469 15C0.105469 23.2838 6.82172 30 15.1055 30C23.3892 30 30.1055 23.2838 30.1055 15C30.1055 12.275 29.368 9.7275 28.098 7.525L14.0392 21.5837C13.8055 21.8175 13.488 21.95 13.1555 21.95Z" fill="#1B1F29"/>
<path d="M30.989 2.86632C30.5003 2.37757 29.7103 2.37757 29.2215 2.86632L26.6553 5.43257C27.1953 6.08382 27.6715 6.78882 28.0978 7.52632L30.989 4.63507C31.4778 4.14507 31.4778 3.35507 30.989 2.86632Z" fill="#1B1F29"/>
</svg>
